<svg xmlns="http://www.w3.org/2000/svg" width="1200" height="630" viewBox="0 0 1200 630" role="img" aria-label="RSSH product preview">
  <defs>
    <linearGradient id="bg" x1="0" y1="0" x2="1" y2="1">
      <stop offset="0" stop-color="#0b0f16"/>
      <stop offset="0.52" stop-color="#101621"/>
      <stop offset="1" stop-color="#0a0e15"/>
    </linearGradient>
    <linearGradient id="line" x1="0" y1="0" x2="1" y2="1">
      <stop offset="0" stop-color="#4a6cf7"/>
      <stop offset="0.5" stop-color="#38bdf8"/>
      <stop offset="1" stop-color="#4cb88a"/>
    </linearGradient>
    <filter id="shadow" x="-20%" y="-20%" width="140%" height="140%">
      <feDropShadow dx="0" dy="24" stdDeviation="28" flood-color="#020817" flood-opacity="0.45"/>
    </filter>
    <pattern id="grid" width="64" height="64" patternUnits="userSpaceOnUse">
      <path d="M64 0H0V64" fill="none" stroke="#94a3b8" stroke-opacity="0.08"/>
    </pattern>
  </defs>
  <rect width="1200" height="630" fill="url(#bg)"/>
  <rect width="1200" height="630" fill="url(#grid)"/>
  <path d="M54 482C210 374 290 484 430 334S678 132 904 188s256-34 354-106" fill="none" stroke="url(#line)" stroke-width="4" stroke-linecap="round"/>
  <path d="M-40 214C150 196 210 104 382 142s252 252 462 184 238 22 438-78" fill="none" stroke="#ddaa33" stroke-opacity="0.45" stroke-width="3" stroke-linecap="round"/>
  <g filter="url(#shadow)">
    <rect x="70" y="88" width="470" height="320" rx="12" fill="#131a26" stroke="#334155"/>
    <rect x="70" y="88" width="470" height="44" rx="12" fill="#1f2937"/>
    <circle cx="100" cy="110" r="7" fill="#e05555"/>
    <circle cx="124" cy="110" r="7" fill="#ddaa33"/>
    <circle cx="148" cy="110" r="7" fill="#4cb88a"/>
    <rect x="104" y="174" width="6" height="60" rx="3" fill="#4a6cf7"/>
    <text x="126" y="190" fill="#6f8cff" font-family="JetBrains Mono, Menlo, monospace" font-size="22">$ rssh open prod-api</text>
    <text x="126" y="226" fill="#4cb88a" font-family="JetBrains Mono, Menlo, monospace" font-size="22">connected via bastion-01</text>
    <rect x="104" y="260" width="6" height="92" rx="3" fill="#ddaa33"/>
    <text x="126" y="278" fill="#d9e0ed" font-family="JetBrains Mono, Menlo, monospace" font-size="21">tail -5 /var/log/app.log</text>
    <text x="126" y="314" fill="#ddaa33" font-family="JetBrains Mono, Menlo, monospace" font-size="20">WARN cache miss rate 12%</text>
    <text x="126" y="350" fill="#e05555" font-family="JetBrains Mono, Menlo, monospace" font-size="20">ERROR redis refused</text>
  </g>
  <g filter="url(#shadow)">
    <rect x="690" y="154" width="390" height="250" rx="12" fill="#121926" stroke="#334155"/>
    <text x="728" y="210" fill="#8794aa" font-family="Inter, Arial, sans-serif" font-size="20" font-weight="700">AI Ops Diagnose</text>
    <text x="728" y="256" fill="#f5f7fb" font-family="Inter, Arial, sans-serif" font-size="34" font-weight="900">Human-approved</text>
    <rect x="728" y="292" width="304" height="70" rx="8" fill="#9b7cff" fill-opacity="0.13" stroke="#9b7cff" stroke-opacity="0.42"/>
    <text x="750" y="322" fill="#dfe5ff" font-family="JetBrains Mono, Menlo, monospace" font-size="17">jcmd 1842 Thread.print</text>
    <text x="750" y="348" fill="#8794aa" font-family="Inter, Arial, sans-serif" font-size="15">read-only, approve before run</text>
  </g>
  <text x="70" y="520" fill="#f5f7fb" font-family="Inter, Arial, sans-serif" font-size="96" font-weight="900" letter-spacing="0">RSSH</text>
  <text x="72" y="574" fill="#b8c4d8" font-family="Inter, Arial, sans-serif" font-size="30" font-weight="700">SSH connection manager with readable terminal timelines.</text>
</svg>
